<svg width="24" height="24" viewBox="0 0 24 24" fill="none" xmlns="http://www.w3.org/2000/svg">
<g clip-path="url(#clip0)">
<path d="M14.8125 0H4.96875C3.80564 0 2.85938 0.946266 2.85938 2.10938V21.8906C2.85938 23.0537 3.80564 24 4.96875 24H14.8125C15.9756 24 16.9219 23.0537 16.9219 21.8906V16.8714C19.3039 16.5292 21.1406 14.4752 21.1406 12C21.1406 9.52481 19.3039 7.4708 16.9219 7.12856V2.10938C16.9219 0.946266 15.9756 0 14.8125 0V0ZM4.26562 2.10938C4.26562 1.72167 4.58105 1.40625 4.96875 1.40625H14.8125C15.2002 1.40625 15.5156 1.72167 15.5156 2.10938V2.8125H4.26562V2.10938ZM15.5156 21.8906C15.5156 22.2783 15.2002 22.5938 14.8125 22.5938H4.96875C4.58105 22.5938 4.26562 22.2783 4.26562 21.8906V21.1875H15.5156V21.8906ZM4.26562 19.7812V4.21875H15.5156V7.12856C13.1336 7.4708 11.2969 9.52477 11.2969 12C11.2969 12.9974 11.6099 13.9718 12.1875 14.797L10.5938 16.9219H15.5156V19.7812H4.26562ZM19.7344 12C19.7344 13.9385 18.1573 15.5156 16.2188 15.5156H13.4062L13.9806 14.7499C13.8266 14.5201 12.7031 13.6434 12.7031 12C12.7031 10.0615 14.2802 8.48438 16.2188 8.48438C18.1573 8.48438 19.7344 10.0615 19.7344 12Z" fill="white"/>
<path d="M15.5156 9.89062V11.2969H14.1094V12.7031H15.5156V14.1094H16.9219V12.7031H18.3281V11.2969H16.9219V9.89062H15.5156Z" fill="white"/>
</g>
<defs>
<clipPath id="clip0">
<rect width="24" height="24" fill="white"/>
</clipPath>
</defs>
</svg>
