<svg width="24" height="24" viewBox="0 0 24 24" fill="none" xmlns="http://www.w3.org/2000/svg">
<g clip-path="url(#clip0)">
<path d="M13.2552 0.953274L13.2551 0.95319C12.9315 0.629365 12.5036 0.452149 12.0458 0.452149C11.588 0.452149 11.1602 0.629355 10.8362 0.953268L10.4834 0.600404L10.8362 0.953271L1.05125 10.7381L1.0513 10.7379L1.0512 10.738L1.0425 10.7472L1.04238 10.7471C0.379248 11.4141 0.380501 12.4973 1.04558 13.1624L1.04566 13.1624C1.34984 13.4668 1.75004 13.6424 2.18022 13.661L2.1935 13.6616L2.20673 13.6629C2.21347 13.6635 2.22013 13.6638 2.22696 13.6638H2.61697H3.116V14.1629V21.3674C3.116 22.5175 4.05269 23.4541 5.20298 23.4541H9.03318C9.14586 23.4541 9.23729 23.3627 9.23729 23.25V17.6016C9.23729 16.6753 9.99017 15.9228 10.9162 15.9228H13.1754C14.1016 15.9228 14.8542 16.6754 14.8542 17.6016V23.25C14.8542 23.3627 14.9456 23.4541 15.0583 23.4541H18.8885C20.0389 23.4541 20.9755 22.5176 20.9755 21.3674V14.1629V13.6638H21.4745H21.8363C22.2938 13.6638 22.7217 13.4867 23.0458 13.1626L13.2552 0.953274ZM13.2552 0.953274L23.0406 10.7383C23.0435 10.7413 23.0471 10.7449 23.0513 10.749C23.712 11.416 23.7102 12.4979 23.0459 13.1625L13.2552 0.953274ZM22.7572 12.874L22.7573 12.8739C23.2642 12.3667 23.2648 11.5433 22.7599 11.0348L22.7586 11.0336L22.7507 11.0258L22.7493 11.0245L12.9665 1.2418C12.7212 0.996475 12.3927 0.860353 12.0458 0.860353C11.6989 0.860353 11.3703 0.996404 11.1249 1.24202L1.48065 10.8859H1.48056L1.3354 11.0312L1.3354 11.0312L1.33485 11.0317C1.33481 11.0318 1.33478 11.0318 1.33474 11.0318C1.33462 11.032 1.3345 11.0321 1.33438 11.0322C0.82658 11.5403 0.826432 12.3658 1.33448 12.8738C1.57381 13.1133 1.89395 13.2482 2.23178 13.2541L2.23233 13.2541L2.24027 13.2545L2.25685 13.2556H2.27347H3.3201C3.43286 13.2556 3.5242 13.347 3.5242 13.4597V21.3674C3.5242 22.2935 4.27708 23.0459 5.20298 23.0459H8.33006H8.82908V22.5469V17.6016C8.82908 16.4514 9.7658 15.5146 10.9162 15.5146H13.1754C14.3258 15.5146 15.2624 16.4513 15.2624 17.6016V22.5469V23.0459H15.7614H18.8885C19.8146 23.0459 20.5673 22.2934 20.5673 21.3674V13.4597C20.5673 13.347 20.6586 13.2556 20.7714 13.2556H21.8363C22.1833 13.2556 22.512 13.1192 22.7572 12.874ZM1.27363 11.1061C1.27839 11.099 1.28795 11.0849 1.30256 11.0673C1.29014 11.0824 1.28057 11.0958 1.27363 11.1061ZM2.27347 12.7566C2.26248 12.7559 2.25168 12.7553 2.24051 12.7552L2.27347 12.7566ZM1.27231 11.108L1.26583 11.118C1.26756 11.1153 1.26987 11.1117 1.27231 11.108ZM22.7455 11.0209C22.7452 11.0206 22.7453 11.0206 22.7455 11.0209L22.7455 11.0209Z" fill="white" stroke="white" stroke-width="0.998049"/>
</g>
<defs>
<clipPath id="clip0">
<rect width="24" height="24" fill="white"/>
</clipPath>
</defs>
</svg>
