<svg width="24" height="24" viewBox="0 0 24 24" fill="none" xmlns="http://www.w3.org/2000/svg">
<path d="M21.5352 18.8809C21.5424 18.6753 21.468 18.475 21.3283 18.3237L17.5461 14.2244C17.4402 14.1097 17.3026 14.0293 17.1508 13.9936C16.4264 13.8228 15.609 14.057 14.9165 14.6211L20.7623 20.6323C21.1743 20.157 21.5107 19.5833 21.5352 18.8809V18.8809Z" fill="white"/>
<path d="M9.40388 5.91045C9.36707 5.85295 9.32276 5.8004 9.27204 5.75426L5.50611 2.32341C5.38361 2.21172 5.2287 2.14214 5.06391 2.12419C4.18701 2.02879 3.48297 2.50212 3.0188 2.90935L9.05158 8.71288C9.78675 7.81804 9.92701 6.72692 9.40388 5.91045Z" fill="white"/>
<path d="M13.0098 16.5026C12.4924 16.3438 11.3044 15.8145 9.58303 14.0729C7.87483 12.3452 7.32845 11.1654 7.15633 10.6406C7.37129 10.4361 7.66902 10.1499 7.97481 9.84687L1.93544 4.03693C1.51704 4.54211 1.17885 5.05536 0.912976 5.58911C0.419506 6.58008 -0.20525 8.14746 0.0659294 10.3107C0.403027 13.0005 2.04127 15.8317 4.93526 18.7257C7.68935 21.4797 10.1541 23.0687 12.4701 23.5836C13.0454 23.7116 13.5742 23.7622 14.0561 23.7622C15.2564 23.7622 16.1664 23.4487 16.7809 23.2372C16.8908 23.1993 16.9946 23.1636 17.0863 23.1343C17.9651 22.854 18.8176 22.3731 19.624 21.7046L13.7928 15.7084C13.4984 16.0049 13.2133 16.2951 13.0098 16.5026V16.5026Z" fill="white"/>
<path fill-rule="evenodd" clip-rule="evenodd" d="M16.0158 0.610565C13.2144 0.610565 10.9434 2.88156 10.9434 5.68297C10.9434 7.77931 12.2151 9.57863 14.0291 10.3516C13.5646 11.4209 12.9887 12.9262 13.4092 12.9628C14.0266 13.0166 16.3075 10.982 16.5595 10.7554H18.3171C21.1185 10.7554 23.3895 8.48439 23.3895 5.68297C23.3895 2.88156 21.1185 0.610565 18.3171 0.610565H16.0158Z" fill="white"/>
<path d="M12.747 8C12.747 7.67 12.81 7.343 12.936 7.019C13.062 6.695 13.344 6.347 13.782 5.975L14.646 5.237C14.928 5.003 15.141 4.745 15.285 4.463C15.435 4.181 15.51 3.857 15.51 3.491C15.51 3.023 15.396 2.663 15.168 2.411C14.94 2.153 14.616 2.024 14.196 2.024C14.004 2.024 13.818 2.069 13.638 2.159C13.464 2.249 13.32 2.369 13.206 2.519C13.098 2.663 13.044 2.813 13.044 2.969C13.044 3.113 13.077 3.221 13.143 3.293C13.209 3.359 13.299 3.401 13.413 3.419C13.605 3.449 13.746 3.515 13.836 3.617C13.932 3.713 13.98 3.83 13.98 3.968C13.98 4.082 13.938 4.178 13.854 4.256C13.776 4.334 13.665 4.373 13.521 4.373C13.275 4.373 13.071 4.277 12.909 4.085C12.747 3.887 12.666 3.629 12.666 3.311C12.666 3.005 12.741 2.729 12.891 2.483C13.047 2.237 13.26 2.045 13.53 1.907C13.806 1.769 14.112 1.7 14.448 1.7C14.832 1.7 15.177 1.772 15.483 1.916C15.789 2.06 16.029 2.267 16.203 2.537C16.377 2.807 16.464 3.125 16.464 3.491C16.464 3.857 16.335 4.187 16.077 4.481C15.819 4.775 15.48 5.072 15.06 5.372L14.178 6.056C13.926 6.23 13.731 6.398 13.593 6.56C13.461 6.716 13.395 6.878 13.395 7.046C13.395 7.19 13.488 7.262 13.674 7.262H15.375C15.615 7.262 15.783 7.211 15.879 7.109C15.981 7.001 16.05 6.851 16.086 6.659L16.185 6.128H16.383L16.257 8H12.747ZM18.8947 7.712H19.7677C19.8517 7.712 19.9117 7.694 19.9477 7.658C19.9897 7.622 20.0107 7.562 20.0107 7.478V6.272H17.7247V5.948L20.5147 1.835H20.8387V5.948H21.9277V6.272H20.8387V7.478C20.8387 7.562 20.8567 7.622 20.8927 7.658C20.9347 7.694 20.9977 7.712 21.0817 7.712H21.9547V8H18.8947V7.712ZM18.1387 5.948H20.0107V3.194L18.1387 5.948Z" fill="#C4C4C4"/>
</svg>
