<svg width="24" height="33" viewBox="0 0 24 33" fill="none" xmlns="http://www.w3.org/2000/svg">
<ellipse cx="12" cy="29.0588" rx="12" ry="3.05882" fill="#7B7B7B"/>
<path d="M11.9999 0C6.92053 0 2.78809 4.13245 2.78809 9.2118C2.78809 13.0936 5.20169 16.4221 8.60684 17.7759L11.441 23.589C11.5665 23.8463 11.7946 23.9999 12.0509 23.9999C12.3084 23.9999 12.5377 23.8448 12.6641 23.5853L15.5241 17.7222C18.8599 16.3357 21.2118 13.0435 21.2118 9.2117C21.2117 4.13245 17.0792 0 11.9999 0ZM11.9999 13.8871C9.41773 13.8871 7.3245 11.7939 7.3245 9.2118C7.3245 6.62975 9.41773 4.53641 11.9999 4.53641C14.582 4.53641 16.6753 6.62964 16.6753 9.2118C16.6753 11.794 14.582 13.8871 11.9999 13.8871Z" fill="white"/>
</svg>
