<svg width="24" height="24" viewBox="0 0 24 24" fill="none" xmlns="http://www.w3.org/2000/svg">
<g clip-path="url(#clip0)">
<path d="M23.6253 10.4991C23.4322 10.3778 21.9185 9.47107 21.3169 9.19586L20.5715 7.39624C20.793 6.80117 21.2161 5.13181 21.2823 4.84241C21.3436 4.57409 21.2627 4.29312 21.0681 4.0985L19.9024 2.93286C19.7078 2.73824 19.4267 2.65733 19.1585 2.71864C18.939 2.76885 17.226 3.19817 16.6046 3.42945L14.805 2.684C14.5416 2.10838 13.6619 0.630553 13.5018 0.375601C13.3555 0.142492 13.0995 0.000976562 12.8243 0.000976562H11.1757C10.9004 0.000976562 10.6445 0.142492 10.4982 0.375601C10.3769 0.568772 9.47014 2.08241 9.19494 2.684L7.39531 3.42945C6.80024 3.20797 5.13088 2.78483 4.84148 2.71864C4.57316 2.65738 4.29219 2.73828 4.09757 2.93286L2.93189 4.09855C2.73726 4.29317 2.65635 4.57414 2.71767 4.84245C2.76787 5.06192 3.1972 6.77492 3.42848 7.39629L2.68303 9.19591C2.1074 9.45926 0.629577 10.339 0.374624 10.4991C0.141515 10.6454 0 10.9014 0 11.1766V12.8252C0 13.1005 0.141515 13.3564 0.374624 13.5027C0.567796 13.624 2.08143 14.5307 2.68303 14.8059L3.42848 16.6056C3.20699 17.2006 2.78385 18.87 2.71767 19.1594C2.6564 19.4277 2.73726 19.7087 2.93189 19.9033L4.09757 21.069C4.29219 21.2636 4.57326 21.3446 4.84148 21.2832C5.06094 21.233 6.77394 20.8037 7.39531 20.5724L9.19494 21.3179C9.45828 21.8935 10.338 23.3713 10.4982 23.6263C10.6445 23.8594 10.9004 24.0009 11.1757 24.0009H12.8243C13.0995 24.0009 13.3555 23.8594 13.5018 23.6263C13.6231 23.4331 14.5298 21.9194 14.805 21.3179L16.6046 20.5724C17.1997 20.7939 18.8691 21.217 19.1585 21.2832C19.4269 21.3446 19.7078 21.2636 19.9024 21.069L21.0681 19.9033C21.2627 19.7087 21.3436 19.4277 21.2823 19.1594C21.2321 18.9399 20.8028 17.2269 20.5715 16.6056L21.3169 14.8059C21.8926 14.5426 23.3704 13.6629 23.6253 13.5027C23.8584 13.3564 24 13.1005 24 12.8252V11.1766C24 10.9014 23.8584 10.6454 23.6253 10.4991ZM22.4001 12.3743H22.4C21.8301 12.7129 20.8815 13.2585 20.5841 13.3819C20.318 13.4258 20.0833 13.603 19.9747 13.8653L18.9573 16.3216C18.8487 16.5838 18.8892 16.8751 19.0464 17.0943C19.1696 17.3922 19.4544 18.4485 19.6179 19.0908L19.0898 19.6189C18.4476 19.4554 17.3912 19.1706 17.0933 19.0474C16.8742 18.8902 16.5828 18.8496 16.3206 18.9583L13.8643 19.9757C13.6021 20.0843 13.4248 20.319 13.381 20.5851C13.2575 20.8825 12.712 21.831 12.3733 22.4009H11.6265C11.2879 21.831 10.7424 20.8825 10.6189 20.5851C10.5751 20.3189 10.3978 20.0843 10.1355 19.9757L7.67919 18.9583C7.41697 18.8497 7.12569 18.8902 6.90655 19.0474C6.60875 19.1706 5.55238 19.4554 4.91001 19.6189L4.38191 19.0908C4.54537 18.4486 4.83027 17.3922 4.95341 17.0943C5.11058 16.8751 5.15113 16.5838 5.04252 16.3216L4.0251 13.8653C3.91645 13.6031 3.68184 13.4258 3.41573 13.3819C3.11845 13.2585 2.16993 12.7129 1.59998 12.3743V11.6275C2.16989 11.2889 3.11845 10.7433 3.41587 10.6199C3.68202 10.576 3.91663 10.3988 4.02524 10.1365L5.04266 7.68021C5.15122 7.41799 5.11072 7.12671 4.95355 6.90753C4.83037 6.60959 4.54551 5.55331 4.38205 4.91103L4.91015 4.38294C5.55238 4.54639 6.60871 4.83125 6.90664 4.95444C7.12578 5.11161 7.41706 5.15215 7.67933 5.04354L10.1356 4.02613C10.3978 3.91747 10.5751 3.68286 10.619 3.41675C10.7424 3.11942 11.2879 2.17091 11.6266 1.60096H12.3734C12.712 2.17086 13.2575 3.11942 13.381 3.41685C13.4248 3.683 13.6021 3.91761 13.8644 4.02622L16.3207 5.04364C16.5829 5.1522 16.8742 5.11175 17.0933 4.95453C17.3911 4.83134 18.4475 4.54653 19.0899 4.38303L19.6179 4.91112C19.4545 5.55336 19.1696 6.60968 19.0464 6.90762C18.8893 7.12681 18.8487 7.41809 18.9573 7.68031L19.9748 10.1366C20.0834 10.3988 20.318 10.5761 20.5841 10.62C20.8816 10.7434 21.8301 11.289 22.4 11.6276V12.3743H22.4001Z" fill="#0BCAD4"/>
<path d="M12 6.76855C9.11539 6.76855 6.76855 9.11539 6.76855 12C6.76855 14.8847 9.11539 17.2315 12 17.2315C14.8847 17.2315 17.2315 14.8846 17.2315 12C17.2315 9.11535 14.8847 6.76855 12 6.76855ZM12 15.6315C9.99762 15.6315 8.36858 14.0024 8.36858 12C8.36858 9.99763 9.99762 8.36858 12 8.36858C14.0024 8.36858 15.6315 9.99763 15.6315 12C15.6315 14.0024 14.0024 15.6315 12 15.6315Z" fill="#0BCAD4"/>
</g>
<defs>
<clipPath id="clip0">
<rect width="24" height="24" fill="white"/>
</clipPath>
</defs>
</svg>
