<svg width="201" height="197" viewBox="0 0 201 197" fill="none" xmlns="http://www.w3.org/2000/svg">
<path fill-rule="evenodd" clip-rule="evenodd" d="M25.2182 177.766C22.3256 177.166 19.2091 178.184 17.25 180.657C14.4836 184.15 15.0726 189.225 18.5657 191.991C22.0587 194.757 27.1329 194.168 29.8993 190.675C31.9932 188.031 32.1648 184.482 30.6098 181.712L80.0364 119.304L74.8022 115.158L25.2182 177.766Z" fill="#FF0000"/>
<path fill-rule="evenodd" clip-rule="evenodd" d="M80.7979 13.3181C82.7575 11.7193 83.7189 9.07074 83.0416 6.46257C82.1148 2.89339 78.47 0.751376 74.9009 1.67823C71.3317 2.60509 69.1897 6.24985 70.1165 9.81902C70.8472 12.6329 73.2672 14.5597 76.0076 14.795L93.5846 82.4811L98.4316 81.2224L80.7979 13.3181Z" fill="#FF0000"/>
<path fill-rule="evenodd" clip-rule="evenodd" d="M121.066 40.1644C123.591 40.2969 126.083 38.9813 127.334 36.5945C129.046 33.3283 127.785 29.2929 124.519 27.5812C121.253 25.8696 117.218 27.1298 115.506 30.396C114.156 32.971 114.654 36.0241 116.526 38.0397L84.0656 99.9807L88.5011 102.305L121.066 40.1644Z" fill="#FF0000"/>
<path fill-rule="evenodd" clip-rule="evenodd" d="M150.359 103.149C151.352 105.475 153.63 107.133 156.323 107.206C160.01 107.305 163.078 104.397 163.177 100.711C163.277 97.0246 160.369 93.956 156.682 93.8569C153.776 93.7787 151.254 95.5695 150.268 98.1372L80.3622 96.2571L80.2276 101.263L150.359 103.149Z" fill="#FF0000"/>
<path fill-rule="evenodd" clip-rule="evenodd" d="M29.2137 121.441C25.5103 116.171 18.4654 114.12 12.3967 116.896C5.55017 120.028 2.53876 128.117 5.67049 134.964C8.80222 141.81 16.8912 144.821 23.7377 141.69C29.8064 138.914 32.8618 132.243 31.2967 125.995L104.367 92.5709L102.284 88.017L29.2137 121.441Z" fill="#FF0000"/>
<path fill-rule="evenodd" clip-rule="evenodd" d="M166.341 158.468C163.063 164.012 164.094 171.277 169.122 175.665C174.795 180.615 183.406 180.03 188.356 174.357C193.307 168.685 192.721 160.073 187.049 155.123C182.021 150.735 174.684 150.696 169.634 154.695L109.094 101.861L105.801 105.634L166.341 158.468Z" fill="#FF0000"/>
<path fill-rule="evenodd" clip-rule="evenodd" d="M171.835 41.5701C176.648 45.8494 183.976 46.2286 189.246 42.134C195.191 37.5146 196.265 28.9505 191.646 23.0054C187.027 17.0604 178.462 15.9858 172.517 20.6051C167.248 24.6997 165.805 31.8937 168.762 37.6158L105.312 86.9172L108.385 90.8715L171.835 41.5701Z" fill="#FF0000"/>
<path fill-rule="evenodd" clip-rule="evenodd" d="M97.7817 157.005C91.5544 158.651 87.1875 164.547 87.6863 171.202C88.249 178.71 94.7913 184.34 102.299 183.777C109.807 183.214 115.437 176.672 114.874 169.164C114.375 162.51 109.178 157.33 102.775 156.631L96.77 76.5033L91.7763 76.8776L97.7817 157.005Z" fill="#FF0000"/>
<path fill-rule="evenodd" clip-rule="evenodd" d="M51.1583 84.2545C52.5517 78.1527 49.0666 71.8938 42.9967 69.9433C36.5848 67.8829 29.7166 71.4105 27.6562 77.8225C25.5959 84.2344 29.1235 91.1026 35.5354 93.1629C40.8443 94.8689 46.466 92.744 49.4125 88.323L49.2289 88.8944L128.689 114.428L130.221 109.66L51.1583 84.2545Z" fill="#FF0000"/>
<circle cx="99.319" cy="93.7549" r="40.3396" fill="#5B5B5B"/>
<circle cx="99.319" cy="93.7549" r="33.6627" fill="white"/>
<circle cx="116.289" cy="105.161" r="7.23332" fill="#FF0000"/>
<circle cx="99.5972" cy="73.446" r="5.00768" fill="#FF0000"/>
<circle cx="84.0178" cy="104.605" r="5.00768" fill="#FF0000"/>
<path d="M17.2487 48.6858C24.8817 23.5184 34.1353 14.432 61.7614 8.90254L63.987 12.241C36.5697 17.8746 27.616 26.058 20.3089 51.746L17.2487 48.6858Z" fill="black"/>
<path d="M28.9648 56.483C35.699 34.2792 43.8629 26.2628 68.2359 21.3845L70.1995 24.3298C46.0107 29.3001 38.1113 36.5198 31.6647 59.1829L28.9648 56.483Z" fill="black"/>
<path d="M40.1351 65.7683C46.3064 45.4205 53.7879 38.0741 76.1236 33.6036L77.923 36.3028C55.7562 40.8575 48.5171 47.4738 42.6093 68.2425L40.1351 65.7683Z" fill="black"/>
<path d="M50.5343 73.5867C55.9076 55.8701 62.4216 49.4737 81.869 45.5813L83.4358 47.9314C64.1354 51.8972 57.8324 57.6579 52.6885 75.741L50.5343 73.5867Z" fill="black"/>
</svg>
